<mxfile host="Electron" type="device">
  <diagram name="Seite-1" id="xmn08oupI2gSAHxAwkuE">
    <mxGraphModel dx="394" dy="220" grid="1" gridSize="10" guides="1" tooltips="1" connect="1" arrows="1" fold="1" page="1" pageScale="1" pageWidth="827" pageHeight="1169" math="0" shadow="0">
      <root>
        <mxCell id="0" />
        <mxCell id="1" parent="0" />
        <mxCell id="Sy3GnD-ZVnJThFurnhwo-33" value="" style="rounded=1;whiteSpace=wrap;html=1;fillColor=#d5e8d4;strokeColor=#82b366;arcSize=21;" parent="1" vertex="1">
          <mxGeometry x="130" y="790" width="280" height="290" as="geometry" />
        </mxCell>
        <mxCell id="Sy3GnD-ZVnJThFurnhwo-21" value="" style="rounded=1;whiteSpace=wrap;html=1;fillColor=#f5f5f5;fontColor=#333333;strokeColor=#666666;" parent="1" vertex="1">
          <mxGeometry x="60" y="330" width="480" height="250" as="geometry" />
        </mxCell>
        <mxCell id="Sy3GnD-ZVnJThFurnhwo-4" style="edgeStyle=orthogonalEdgeStyle;rounded=0;orthogonalLoop=1;jettySize=auto;html=1;exitX=0.5;exitY=1;exitDx=0;exitDy=0;" parent="1" source="Sy3GnD-ZVnJThFurnhwo-1" target="Sy3GnD-ZVnJThFurnhwo-3" edge="1">
          <mxGeometry relative="1" as="geometry" />
        </mxCell>
        <mxCell id="Sy3GnD-ZVnJThFurnhwo-1" value="python make_release.py" style="rounded=1;whiteSpace=wrap;html=1;" parent="1" vertex="1">
          <mxGeometry x="180" y="80" width="120" height="60" as="geometry" />
        </mxCell>
        <mxCell id="Sy3GnD-ZVnJThFurnhwo-6" style="edgeStyle=orthogonalEdgeStyle;rounded=0;orthogonalLoop=1;jettySize=auto;html=1;exitX=0.5;exitY=1;exitDx=0;exitDy=0;entryX=0.5;entryY=0;entryDx=0;entryDy=0;" parent="1" source="Sy3GnD-ZVnJThFurnhwo-3" target="Sy3GnD-ZVnJThFurnhwo-5" edge="1">
          <mxGeometry relative="1" as="geometry" />
        </mxCell>
        <mxCell id="Sy3GnD-ZVnJThFurnhwo-3" value="Manually adjust CHANGELOG.md changes" style="rounded=1;whiteSpace=wrap;html=1;" parent="1" vertex="1">
          <mxGeometry x="180" y="170" width="120" height="60" as="geometry" />
        </mxCell>
        <mxCell id="Sy3GnD-ZVnJThFurnhwo-9" style="edgeStyle=orthogonalEdgeStyle;rounded=0;orthogonalLoop=1;jettySize=auto;html=1;exitX=0.5;exitY=1;exitDx=0;exitDy=0;" parent="1" source="Sy3GnD-ZVnJThFurnhwo-5" target="Sy3GnD-ZVnJThFurnhwo-8" edge="1">
          <mxGeometry relative="1" as="geometry" />
        </mxCell>
        <mxCell id="Sy3GnD-ZVnJThFurnhwo-10" value="Yes" style="edgeLabel;html=1;align=center;verticalAlign=middle;resizable=0;points=[];" parent="Sy3GnD-ZVnJThFurnhwo-9" vertex="1" connectable="0">
          <mxGeometry x="0.1768" y="-2" relative="1" as="geometry">
            <mxPoint as="offset" />
          </mxGeometry>
        </mxCell>
        <mxCell id="Sy3GnD-ZVnJThFurnhwo-12" style="edgeStyle=orthogonalEdgeStyle;rounded=0;orthogonalLoop=1;jettySize=auto;html=1;exitX=0.5;exitY=1;exitDx=0;exitDy=0;entryX=0.5;entryY=0;entryDx=0;entryDy=0;" parent="1" source="Sy3GnD-ZVnJThFurnhwo-5" target="Sy3GnD-ZVnJThFurnhwo-11" edge="1">
          <mxGeometry relative="1" as="geometry" />
        </mxCell>
        <mxCell id="Sy3GnD-ZVnJThFurnhwo-13" value="No" style="edgeLabel;html=1;align=center;verticalAlign=middle;resizable=0;points=[];" parent="Sy3GnD-ZVnJThFurnhwo-12" vertex="1" connectable="0">
          <mxGeometry x="0.3105" y="2" relative="1" as="geometry">
            <mxPoint as="offset" />
          </mxGeometry>
        </mxCell>
        <mxCell id="Sy3GnD-ZVnJThFurnhwo-5" value="Is there a breaking change" style="rounded=1;whiteSpace=wrap;html=1;" parent="1" vertex="1">
          <mxGeometry x="180" y="260" width="120" height="60" as="geometry" />
        </mxCell>
        <mxCell id="Sy3GnD-ZVnJThFurnhwo-24" style="edgeStyle=orthogonalEdgeStyle;rounded=0;orthogonalLoop=1;jettySize=auto;html=1;exitX=0.5;exitY=1;exitDx=0;exitDy=0;" parent="1" source="Sy3GnD-ZVnJThFurnhwo-7" target="Sy3GnD-ZVnJThFurnhwo-23" edge="1">
          <mxGeometry relative="1" as="geometry" />
        </mxCell>
        <mxCell id="Sy3GnD-ZVnJThFurnhwo-7" value="Adjust the CHANGELOG.md" style="rounded=1;whiteSpace=wrap;html=1;" parent="1" vertex="1">
          <mxGeometry x="170" y="600" width="120" height="60" as="geometry" />
        </mxCell>
        <mxCell id="Sy3GnD-ZVnJThFurnhwo-17" style="edgeStyle=orthogonalEdgeStyle;rounded=0;orthogonalLoop=1;jettySize=auto;html=1;exitX=0.5;exitY=1;exitDx=0;exitDy=0;" parent="1" source="Sy3GnD-ZVnJThFurnhwo-8" target="Sy3GnD-ZVnJThFurnhwo-7" edge="1">
          <mxGeometry relative="1" as="geometry">
            <Array as="points">
              <mxPoint x="150" y="460" />
              <mxPoint x="230" y="460" />
            </Array>
          </mxGeometry>
        </mxCell>
        <mxCell id="Sy3GnD-ZVnJThFurnhwo-8" value="Major version bump in _version.py" style="rounded=1;whiteSpace=wrap;html=1;" parent="1" vertex="1">
          <mxGeometry x="90" y="370" width="120" height="60" as="geometry" />
        </mxCell>
        <mxCell id="Sy3GnD-ZVnJThFurnhwo-15" style="edgeStyle=orthogonalEdgeStyle;rounded=0;orthogonalLoop=1;jettySize=auto;html=1;exitX=0.5;exitY=1;exitDx=0;exitDy=0;" parent="1" source="Sy3GnD-ZVnJThFurnhwo-11" target="Sy3GnD-ZVnJThFurnhwo-14" edge="1">
          <mxGeometry relative="1" as="geometry" />
        </mxCell>
        <mxCell id="Sy3GnD-ZVnJThFurnhwo-16" value="Yes" style="edgeLabel;html=1;align=center;verticalAlign=middle;resizable=0;points=[];" parent="Sy3GnD-ZVnJThFurnhwo-15" vertex="1" connectable="0">
          <mxGeometry x="-0.2562" y="3" relative="1" as="geometry">
            <mxPoint as="offset" />
          </mxGeometry>
        </mxCell>
        <mxCell id="Sy3GnD-ZVnJThFurnhwo-20" style="edgeStyle=orthogonalEdgeStyle;rounded=0;orthogonalLoop=1;jettySize=auto;html=1;exitX=0.5;exitY=1;exitDx=0;exitDy=0;" parent="1" source="Sy3GnD-ZVnJThFurnhwo-11" target="Sy3GnD-ZVnJThFurnhwo-19" edge="1">
          <mxGeometry relative="1" as="geometry" />
        </mxCell>
        <mxCell id="Sy3GnD-ZVnJThFurnhwo-11" value="Is there a new feature?" style="rounded=1;whiteSpace=wrap;html=1;" parent="1" vertex="1">
          <mxGeometry x="250" y="370" width="120" height="60" as="geometry" />
        </mxCell>
        <mxCell id="Sy3GnD-ZVnJThFurnhwo-18" style="edgeStyle=orthogonalEdgeStyle;rounded=0;orthogonalLoop=1;jettySize=auto;html=1;exitX=0.5;exitY=1;exitDx=0;exitDy=0;entryX=0.5;entryY=0;entryDx=0;entryDy=0;" parent="1" source="Sy3GnD-ZVnJThFurnhwo-14" target="Sy3GnD-ZVnJThFurnhwo-7" edge="1">
          <mxGeometry relative="1" as="geometry" />
        </mxCell>
        <mxCell id="Sy3GnD-ZVnJThFurnhwo-14" value="Minor version bump" style="rounded=1;whiteSpace=wrap;html=1;" parent="1" vertex="1">
          <mxGeometry x="250" y="490" width="120" height="60" as="geometry" />
        </mxCell>
        <mxCell id="Sy3GnD-ZVnJThFurnhwo-35" style="edgeStyle=orthogonalEdgeStyle;rounded=0;orthogonalLoop=1;jettySize=auto;html=1;exitX=0.5;exitY=1;exitDx=0;exitDy=0;entryX=1;entryY=0.5;entryDx=0;entryDy=0;" parent="1" source="Sy3GnD-ZVnJThFurnhwo-19" target="Sy3GnD-ZVnJThFurnhwo-23" edge="1">
          <mxGeometry relative="1" as="geometry" />
        </mxCell>
        <mxCell id="Sy3GnD-ZVnJThFurnhwo-19" value="Patch version bump" style="rounded=1;whiteSpace=wrap;html=1;" parent="1" vertex="1">
          <mxGeometry x="400" y="490" width="120" height="60" as="geometry" />
        </mxCell>
        <mxCell id="Sy3GnD-ZVnJThFurnhwo-22" value="Semantic Versioning" style="text;html=1;align=center;verticalAlign=middle;whiteSpace=wrap;rounded=0;fontStyle=1;fontSize=18;fontColor=#6E6E6E;" parent="1" vertex="1">
          <mxGeometry x="450" y="350" width="60" height="30" as="geometry" />
        </mxCell>
        <mxCell id="Sy3GnD-ZVnJThFurnhwo-27" style="edgeStyle=orthogonalEdgeStyle;rounded=0;orthogonalLoop=1;jettySize=auto;html=1;exitX=0.5;exitY=1;exitDx=0;exitDy=0;entryX=0.5;entryY=0;entryDx=0;entryDy=0;" parent="1" source="Sy3GnD-ZVnJThFurnhwo-23" edge="1">
          <mxGeometry relative="1" as="geometry">
            <mxPoint x="230" y="810" as="targetPoint" />
          </mxGeometry>
        </mxCell>
        <mxCell id="Sy3GnD-ZVnJThFurnhwo-23" value="git commit -eF RELEASE_COMMIT_MSG.md" style="rounded=1;whiteSpace=wrap;html=1;" parent="1" vertex="1">
          <mxGeometry x="75" y="700" width="310" height="60" as="geometry" />
        </mxCell>
        <mxCell id="Sy3GnD-ZVnJThFurnhwo-30" style="edgeStyle=orthogonalEdgeStyle;rounded=0;orthogonalLoop=1;jettySize=auto;html=1;exitX=0.5;exitY=1;exitDx=0;exitDy=0;entryX=0.5;entryY=0;entryDx=0;entryDy=0;" parent="1" target="Sy3GnD-ZVnJThFurnhwo-28" edge="1">
          <mxGeometry relative="1" as="geometry">
            <mxPoint x="230" y="870" as="sourcePoint" />
          </mxGeometry>
        </mxCell>
        <mxCell id="Sy3GnD-ZVnJThFurnhwo-31" style="edgeStyle=orthogonalEdgeStyle;rounded=0;orthogonalLoop=1;jettySize=auto;html=1;exitX=0.5;exitY=1;exitDx=0;exitDy=0;entryX=0.5;entryY=0;entryDx=0;entryDy=0;" parent="1" source="Sy3GnD-ZVnJThFurnhwo-28" target="Sy3GnD-ZVnJThFurnhwo-29" edge="1">
          <mxGeometry relative="1" as="geometry" />
        </mxCell>
        <mxCell id="Sy3GnD-ZVnJThFurnhwo-28" value="Build and push packages to PyPI" style="rounded=1;whiteSpace=wrap;html=1;" parent="1" vertex="1">
          <mxGeometry x="170" y="910" width="120" height="60" as="geometry" />
        </mxCell>
        <mxCell id="Sy3GnD-ZVnJThFurnhwo-29" value="Create release on GitHub" style="rounded=1;whiteSpace=wrap;html=1;" parent="1" vertex="1">
          <mxGeometry x="170" y="1010" width="120" height="60" as="geometry" />
        </mxCell>
        <mxCell id="Sy3GnD-ZVnJThFurnhwo-36" value="GitHub Action" style="text;html=1;align=center;verticalAlign=middle;whiteSpace=wrap;rounded=0;fontStyle=1;fontSize=18;fontColor=#6F9958;" parent="1" vertex="1">
          <mxGeometry x="325" y="813" width="60" height="30" as="geometry" />
        </mxCell>
        <mxCell id="srRZveQdFgRCeiaoivwE-1" value="Create tag on&lt;div&gt;GitHub&lt;/div&gt;" style="rounded=1;whiteSpace=wrap;html=1;" vertex="1" parent="1">
          <mxGeometry x="170" y="810" width="120" height="60" as="geometry" />
        </mxCell>
      </root>
    </mxGraphModel>
  </diagram>
</mxfile>
